<?xml version="1.0" encoding="UTF-8" standalone="no"?><!DOCTYPE svg PUBLIC "-//W3C//DTD SVG 1.1//EN" "http://www.w3.org/Graphics/SVG/1.1/DTD/svg11.dtd"><svg width="100%" height="100%" viewBox="0 0 250 245" version="1.1" xmlns="http://www.w3.org/2000/svg" xmlns:xlink="http://www.w3.org/1999/xlink" xml:space="preserve" xmlns:serif="http://www.serif.com/" style="fill-rule:evenodd;clip-rule:evenodd;stroke-linejoin:round;stroke-miterlimit:2;"><rect id="Artboard1" x="-676.543" y="-575.853" width="1277.3" height="970.459" style="fill:none;"/><g><path id="border-jaune" d="M11.795,5.433c29.223,0 61.529,7.135 90.144,3.442c23.985,-3.095 52.502,0 77.667,0c14.864,0 27.25,-4.115 41.533,-4.115c3.512,0 14.317,-1.2 16.39,0.673c0.905,0.818 0,13.882 0,15.214c0,7.526 1.018,8.944 -1.49,15.741c-2.203,5.968 1.49,23.567 1.49,29.917c0,14.516 -0.745,28.648 -0.745,43.068c0,6.253 -1.87,15.825 -0.745,22.651c0.172,1.046 0.414,2.027 0.745,2.921c4.14,11.219 0.745,36.614 0.745,48.804c0,6.774 2.901,16.26 5.214,22.529c0.68,1.841 1.165,29.904 0,30.955c-2.128,1.923 -33.678,-2.306 -38.785,0c-8.768,3.961 -50.088,-1.969 -55.829,-0.672c-13.814,3.119 -31.445,1.345 -46.19,1.345c-19.49,0 -38.666,-0.673 -58.109,-0.673c-6.827,0 -12.616,0.673 -19.37,0.673c-1.692,0 -13.41,0.225 -13.41,0c0,-20.986 5.915,-50.907 1.49,-70.659c-4.306,-19.218 -2.094,-49.458 -1.49,-71.333c0.309,-11.203 0.991,-24.553 -3.725,-34.32c-2.981,-6.172 0,-32.695 0,-40.947c0,-4.06 4.47,-15.214 4.47,-15.214Z" style="fill:#fff;"/></g><path d="M210.007,6.475c19.722,0 34.985,-5.6 53.6,-5.6c4.105,0 13.19,-1.805 16.8,0c9.451,4.726 36.483,1.6 48,1.6c13.801,0 30.493,-2.251 44,0c17.308,2.885 35.29,6.4 53.6,6.4" style="fill:none;"/><path d="M13.245,0.073c28.106,0.262 56.065,5.986 84.409,3.248c3.756,-0.363 7.493,-0.895 11.259,-1.189c27.399,-2.133 55.51,3.185 82.027,-0.007c10.124,-1.219 20.019,-1.881 30.386,-2.031c0.23,-0.005 9.241,-0.021 9.471,-0.021c6.961,0.011 9.384,-0.05 12.316,3.077c3.728,3.975 0.675,11.212 0.421,17.339c0,0 0.435,5.174 0.138,9.513c-0.2,2.937 -1.208,5.729 -2.033,8.554c-0.671,2.388 -0.32,5.129 -0.114,7.789c0.57,7.383 2.027,14.683 1.999,22.026c-0.074,13.765 -0.679,27.558 -0.742,41.351c-0.005,0.351 -0.005,0.351 -0.012,0.702c-0.222,7.722 -2.679,15.749 -0.169,22.973c5.385,15.87 0.507,34.231 0.934,50.841c0.174,6.784 2.459,13.488 4.856,20.014c0,0 0.741,5.117 0.885,9.618c0.239,7.499 0.623,15.005 -0.207,22.47c-0.254,2.282 -1.661,4.774 -2.262,5.315c-2.659,2.39 -5.381,1.975 -8.611,1.789c-0.812,-0.047 -6.583,0.029 -7.399,0c-9.542,-0.336 -14.647,-1.908 -24.01,-0.743c-2.722,0.338 -5.563,1.486 -8.619,1.713c-15.688,1.165 -31.672,-2.169 -47.494,-2.042c-1.835,0.015 -3.804,0.59 -5.599,0.871c-15.732,2.456 -31.886,0.726 -47.728,0.652c-21.748,-0.116 -43.476,-1.318 -65.292,-0.209c-0.608,0.03 -10.974,-0.269 -11.583,-0.242c-6.607,0.272 -3.532,1.288 -10.039,0.454c-0.567,-0.073 -0.667,-0.005 -1.942,-0.558l-1.154,-0.717c-0.318,-0.282 -0.607,-0.45 -1.373,-1.531l-0.802,-2.029c-0.482,-3.307 -0.021,-6.815 0.172,-10.281c1.141,-20.45 5.395,-41.095 1.137,-61.212c-5.761,-27.694 -0.583,-57.611 -1.23,-85.286c-0.151,-6.43 -0.96,-12.651 -3.535,-18.556c-1.735,-4.137 -1.696,-8.795 -1.706,-13.406c-0.021,-10.138 0.944,-20.21 1.338,-30.252c0.302,-5.585 2.581,-10.947 4.677,-16.335l0.508,-1.167c1.985,-3.184 2.612,-2.518 6.722,-2.495Zm217.608,11.305c-19.196,0.147 -37.64,3.772 -57.303,3.444c-23.279,-0.388 -46.371,-2.945 -69.766,-0.13c-29.204,3.514 -58.428,-2.532 -87.926,-3.212c-1.179,3.285 -2.484,6.635 -2.543,10.107c-0.255,12.136 -2.93,24.447 -0.856,36.264c0.119,0.682 0.118,0.753 0.786,2.256c4.859,11.196 4.141,24.035 3.802,35.978c-0.673,23.591 -3.438,47.237 1.517,70.631c4.373,21.134 -0.321,42.86 -1.354,64.814l0,0.493c24.669,0 25.412,-0.856 37.596,-0.727c21.008,0.222 41.897,0.373 63.253,0.971c9.866,0.262 19.554,0.083 29.273,-1.663c4.854,-0.792 9.922,-0.01 14.958,0.351c11.996,0.88 14.492,2.514 26.387,1.312c1.52,-0.154 9.12,-0.038 13.175,-0.657c3.944,-0.601 5.924,0.361 9.496,0.413c8.321,0.12 17.607,-0.187 25.893,0c0,0 0.512,-16.287 -0.294,-24.086c0,0 -2.54,-7.102 -3.887,-12.872c-4.056,-17.37 2.393,-35.904 -1.046,-54.723c-0.296,-1.619 -1.036,-3.821 -1.036,-3.821c-3.183,-9.666 -0.247,-20.807 -0.181,-30.567c0.107,-13.218 0.721,-26.44 0.732,-39.638c-0.047,-10.477 -4.53,-21.366 -1.305,-31.464c1.412,-4.423 1.186,-8.921 1.309,-14.529c0.01,-0.301 0.01,-0.3 0.023,-0.602c0.141,-3.08 0.319,-5.161 0.367,-8.241c0,0 -0.675,-0.103 -1.07,-0.102Z" style="fill:#f8bb00;"/><rect id="rep" x="0.078" y="0.151" width="26" height="26" style="fill:none;"/></svg>