<?xml version="1.0" encoding="UTF-8" standalone="no"?>
<!DOCTYPE svg PUBLIC "-//W3C//DTD SVG 1.1//EN" "http://www.w3.org/Graphics/SVG/1.1/DTD/svg11.dtd">
<svg width="100%" height="100%" viewBox="0 0 1920 160" version="1.1" xmlns="http://www.w3.org/2000/svg" xmlns:xlink="http://www.w3.org/1999/xlink" xml:space="preserve" xmlns:serif="http://www.serif.com/" style="fill-rule:evenodd;clip-rule:evenodd;stroke-linejoin:round;stroke-miterlimit:2;">
    <g transform="matrix(1,0,0,1,0,-245.282)">
        <g transform="matrix(1,0,0,7.74494,5.29354e-13,-9643.29)">
            <g transform="matrix(0.99974,0,0,0.109782,-5.29354e-13,1249.85)">
                <rect x="0" y="245.282" width="1920.5" height="188.179" style="fill:none;"/>
                <clipPath id="_clip1">
                    <rect x="0" y="245.282" width="1920.5" height="188.179"/>
                </clipPath>
                <g clip-path="url(#_clip1)">
                    <g transform="matrix(1,0,0,6.83971,6.85674e-13,-8490.66)">
                        <g transform="matrix(1,0,0,0.172251,-4.12115e-13,1245.97)">
                            <path d="M131.14,189.111L172.91,199.606L228.651,195.153L293.898,188.659L296.445,188.677L352.028,195.01L429.232,191.922L431.155,191.999L484.783,198.499L540.37,189.867L542.539,189.729L544.698,189.985L572.644,195.905C572.949,195.811 573.253,195.72 573.558,195.629C585.251,192.199 597.334,190.261 609.398,188.498L610.108,188.396L612.396,188.291C623.689,188.854 635.017,189.738 646.051,192.126L645.548,192.015L688.704,195.425L703.435,194.352C706.052,194.449 706.063,194.451 708.596,195.114L728.429,202.706C802.819,197.906 802.852,198.322 877.124,191.956L879.276,191.965L960.422,199.62L1000.96,192.113L1003.15,191.912L1066.03,191.912L1125.8,195.661L1157.47,190.293C1159.68,190.127 1159.68,190.127 1161.88,190.369L1206.13,199.446L1245.13,190.503L1247.77,190.2L1250.42,190.486L1276.91,196.379L1322.55,188.763L1324.64,188.6L1326.73,188.805L1367.72,196.486L1389.55,194.261L1392.59,194.338L1420,198.533L1487.39,199.544L1549.38,204.326L1615.02,192.114C1616.85,191.918 1616.86,191.917 1618.7,192.005L1678.99,199.541L1715.53,190.477L1718.51,190.125L1721.49,190.524L1755.9,199.627C1792.09,197.365 1793,200.359 1826.67,186.894L1829.59,186.134L1832.61,186.128L1878.89,191.912L1922.4,191.912L2016.64,199.766C2017.76,200.021 2018.91,200.121 2019.97,200.531C2028.41,203.792 2030.17,217.599 2021.28,222.323C2018.55,223.772 2017.64,223.505 2014.65,223.683L1921.4,215.912L1878.15,215.912L1876.66,215.819L1832.71,210.327L1809.17,219.741C1807.35,220.306 1807.35,220.307 1805.46,220.576L1755.46,223.701C1753.54,223.667 1753.53,223.666 1751.64,223.326L1718.32,214.512L1682.6,223.372L1680.42,223.703L1678.22,223.632L1617.57,216.051L1552.22,228.21L1549.1,228.376L1486.28,223.53L1418.82,222.518L1417.18,222.381L1390.47,218.293L1368.43,220.538L1365,220.394L1324.4,212.786L1278.56,220.436C1276.27,220.595 1276.26,220.595 1273.98,220.313L1247.85,214.502L1208.96,223.421L1206.41,223.724L1203.86,223.48L1159.26,214.331L1128.44,219.556L1125.68,219.701L1065.27,215.912L1004.25,215.912L963.146,223.524L959.834,223.672L878.097,215.96L824.36,220.567L727.359,226.825L724.786,226.714L722.296,226.057L702.512,218.483L689.537,219.427L687.721,219.422L642.828,215.875L641.188,215.63C631.742,213.546 622.096,212.887 612.47,212.33L612.344,212.323C600.656,214.053 588.683,215.649 577.919,219.43L577.485,219.588L574.209,220.291L570.866,220.061L541.878,213.92L486.827,222.47L483.542,222.524L429.226,215.941L352.066,219.027L350.228,218.96L295,212.667L230.795,219.058L172.854,223.686C170.903,223.683 170.899,223.683 168.974,223.363L127.055,212.83L70.864,215.901L-23.014,219.03C-24.146,218.906 -25.307,218.941 -26.409,218.657C-35.076,216.423 -38.673,202.993 -30.234,197.164C-27.693,195.408 -26.761,195.568 -23.814,195.044L69.809,191.923L127.561,188.767L129.363,188.804C129.955,188.906 130.548,189.008 131.14,189.111Z" style="fill:url(#_Linear2);"/>
                        </g>
                        <g transform="matrix(1.00073,0,0,0.193843,-5.29354e-13,1240.64)">
                            <rect x="0" y="206.762" width="1920" height="112.88" style="fill:url(#_Linear3);"/>
                        </g>
                        <g transform="matrix(1,0,0,0.172251,-4.12115e-13,1265.41)">
                            <path d="M131.14,189.111L172.91,199.606L228.651,195.153L293.898,188.659L296.445,188.677L352.028,195.01L429.232,191.922L431.155,191.999L484.783,198.499L540.37,189.867L542.539,189.729L544.698,189.985L572.644,195.905C572.948,195.811 573.253,195.72 573.558,195.629C585.253,192.199 597.334,190.261 609.399,188.498L610.107,188.396L612.396,188.291C623.688,188.854 635.017,189.738 646.051,192.126L645.548,192.015L688.704,195.425L703.435,194.352C706.052,194.449 706.063,194.451 708.596,195.114L728.429,202.706C802.819,197.906 802.852,198.322 877.124,191.956L879.276,191.965L960.422,199.62L1000.96,192.113L1003.15,191.912L1066.03,191.912L1125.8,195.661L1157.47,190.293C1159.68,190.127 1159.68,190.127 1161.88,190.369L1206.13,199.446L1245.13,190.503L1247.77,190.2L1250.42,190.486L1276.91,196.379L1322.55,188.763L1324.64,188.6L1326.73,188.805L1367.72,196.486L1389.55,194.261L1392.59,194.338L1420,198.533L1487.39,199.544L1549.38,204.326L1615.02,192.114C1616.85,191.918 1616.86,191.917 1618.7,192.005L1678.99,199.541L1715.53,190.477L1718.51,190.125L1721.49,190.524L1755.9,199.627C1792.09,197.365 1793,200.359 1826.67,186.894L1829.59,186.134L1832.61,186.128L1878.89,191.912L1922.4,191.912L2016.64,199.766C2019.56,200.437 2020.5,200.323 2022.95,202.203C2028.32,206.323 2029.09,215.368 2024.03,220.309C2022.39,221.916 2020.32,223.017 2018.06,223.479C2016.95,223.708 2015.79,223.615 2014.65,223.683L1921.4,215.912L1878.15,215.912L1876.66,215.819L1832.71,210.327L1809.17,219.741C1807.35,220.306 1807.35,220.307 1805.46,220.576L1755.46,223.701C1753.54,223.667 1753.53,223.667 1751.64,223.326L1718.32,214.512L1682.6,223.372L1680.42,223.703L1678.22,223.632L1617.57,216.051L1552.22,228.21L1549.1,228.376L1486.28,223.53L1418.82,222.518L1417.18,222.381L1390.47,218.293L1368.43,220.538L1365,220.394L1324.4,212.786L1278.56,220.436C1276.27,220.595 1276.26,220.595 1273.98,220.313L1247.85,214.502L1208.96,223.421L1206.41,223.724L1203.86,223.48L1159.26,214.331L1128.44,219.556L1125.68,219.701L1065.27,215.912L1004.25,215.912L963.146,223.524L959.834,223.672L878.097,215.96L824.36,220.567L727.359,226.825L724.786,226.714L722.296,226.057L702.512,218.483L689.537,219.427L687.721,219.422L642.828,215.875L641.188,215.63C631.747,213.547 622.095,212.888 612.47,212.33L612.344,212.323C600.656,214.053 588.684,215.65 577.919,219.43L577.485,219.588L574.209,220.291L570.866,220.061L541.878,213.92L486.827,222.47L483.542,222.524L429.226,215.941L352.066,219.027L350.228,218.96L295,212.667L230.795,219.058L172.854,223.686C170.903,223.683 170.899,223.683 168.974,223.363L127.055,212.83L70.864,215.901L-23.014,219.03C-24.146,218.906 -25.307,218.941 -26.409,218.657C-35.17,216.399 -38.524,202.89 -30.234,197.164C-27.693,195.408 -26.761,195.568 -23.814,195.044L69.809,191.923L127.561,188.767L129.363,188.804C129.955,188.906 130.548,189.008 131.14,189.111Z" style="fill:url(#_Linear4);"/>
                        </g>
                    </g>
                </g>
            </g>
        </g>
    </g>
    <defs>
        <linearGradient id="_Linear2" x1="0" y1="0" x2="1" y2="0" gradientUnits="userSpaceOnUse" gradientTransform="matrix(1916.97,0,0,2610.45,3.02823,252.032)"><stop offset="0" style="stop-color:rgb(182,71,17);stop-opacity:1"/><stop offset="1" style="stop-color:rgb(140,24,18);stop-opacity:1"/></linearGradient>
        <linearGradient id="_Linear3" x1="0" y1="0" x2="1" y2="0" gradientUnits="userSpaceOnUse" gradientTransform="matrix(1915.58,0,0,2319.68,3.02603,251.432)"><stop offset="0" style="stop-color:rgb(182,71,17);stop-opacity:1"/><stop offset="1" style="stop-color:rgb(140,24,18);stop-opacity:1"/></linearGradient>
        <linearGradient id="_Linear4" x1="0" y1="0" x2="1" y2="0" gradientUnits="userSpaceOnUse" gradientTransform="matrix(1916.97,0,0,2610.45,3.02823,139.151)"><stop offset="0" style="stop-color:rgb(182,71,17);stop-opacity:1"/><stop offset="1" style="stop-color:rgb(140,24,18);stop-opacity:1"/></linearGradient>
    </defs>
</svg>
